<mxfile host="app.diagrams.net" agent="Mozilla/5.0 (Windows NT 10.0; Win64; x64) AppleWebKit/537.36 (KHTML, like Gecko) Chrome/134.0.0.0 Safari/537.36 Edg/134.0.0.0" version="26.1.1" pages="3">
  <diagram id="JCY9cfpMI6u2hmKir7b-" name="OPERACIONES ARITMETICAS">
    <mxGraphModel dx="1149" dy="432" grid="0" gridSize="10" guides="1" tooltips="1" connect="1" arrows="1" fold="1" page="0" pageScale="1" pageWidth="827" pageHeight="1169" math="0" shadow="0">
      <root>
        <mxCell id="0" />
        <mxCell id="1" parent="0" />
        <mxCell id="HNLCLQ6TpC2mlm2xC2zw-1" value="Usuario" style="shape=umlLifeline;perimeter=lifelinePerimeter;whiteSpace=wrap;html=1;container=1;dropTarget=0;collapsible=0;recursiveResize=0;outlineConnect=0;portConstraint=eastwest;newEdgeStyle={&quot;edgeStyle&quot;:&quot;elbowEdgeStyle&quot;,&quot;elbow&quot;:&quot;vertical&quot;,&quot;curved&quot;:0,&quot;rounded&quot;:0};" parent="1" vertex="1">
          <mxGeometry x="-76" y="61" width="100" height="300" as="geometry" />
        </mxCell>
        <mxCell id="HNLCLQ6TpC2mlm2xC2zw-2" value="GUI" style="shape=umlLifeline;perimeter=lifelinePerimeter;whiteSpace=wrap;html=1;container=1;dropTarget=0;collapsible=0;recursiveResize=0;outlineConnect=0;portConstraint=eastwest;newEdgeStyle={&quot;edgeStyle&quot;:&quot;elbowEdgeStyle&quot;,&quot;elbow&quot;:&quot;vertical&quot;,&quot;curved&quot;:0,&quot;rounded&quot;:0};" parent="1" vertex="1">
          <mxGeometry x="44" y="61" width="100" height="300" as="geometry" />
        </mxCell>
        <mxCell id="HNLCLQ6TpC2mlm2xC2zw-3" value="Scanner" style="shape=umlLifeline;perimeter=lifelinePerimeter;whiteSpace=wrap;html=1;container=1;dropTarget=0;collapsible=0;recursiveResize=0;outlineConnect=0;portConstraint=eastwest;newEdgeStyle={&quot;edgeStyle&quot;:&quot;elbowEdgeStyle&quot;,&quot;elbow&quot;:&quot;vertical&quot;,&quot;curved&quot;:0,&quot;rounded&quot;:0};" parent="1" vertex="1">
          <mxGeometry x="164" y="61" width="100" height="300" as="geometry" />
        </mxCell>
        <mxCell id="HNLCLQ6TpC2mlm2xC2zw-4" value="Intérprete" style="shape=umlLifeline;perimeter=lifelinePerimeter;whiteSpace=wrap;html=1;container=1;dropTarget=0;collapsible=0;recursiveResize=0;outlineConnect=0;portConstraint=eastwest;newEdgeStyle={&quot;edgeStyle&quot;:&quot;elbowEdgeStyle&quot;,&quot;elbow&quot;:&quot;vertical&quot;,&quot;curved&quot;:0,&quot;rounded&quot;:0};" parent="1" vertex="1">
          <mxGeometry x="284" y="61" width="100" height="300" as="geometry" />
        </mxCell>
        <mxCell id="HNLCLQ6TpC2mlm2xC2zw-5" value="GUI" style="shape=umlLifeline;perimeter=lifelinePerimeter;whiteSpace=wrap;html=1;container=1;dropTarget=0;collapsible=0;recursiveResize=0;outlineConnect=0;portConstraint=eastwest;newEdgeStyle={&quot;edgeStyle&quot;:&quot;elbowEdgeStyle&quot;,&quot;elbow&quot;:&quot;vertical&quot;,&quot;curved&quot;:0,&quot;rounded&quot;:0};" parent="1" vertex="1">
          <mxGeometry x="408" y="61" width="100" height="300" as="geometry" />
        </mxCell>
        <mxCell id="HNLCLQ6TpC2mlm2xC2zw-7" value="" style="endArrow=classic;html=1;rounded=0;fontSize=12;startSize=8;endSize=8;curved=1;" parent="1" edge="1">
          <mxGeometry width="50" height="50" relative="1" as="geometry">
            <mxPoint x="-26" y="135" as="sourcePoint" />
            <mxPoint x="94" y="135" as="targetPoint" />
          </mxGeometry>
        </mxCell>
        <mxCell id="HNLCLQ6TpC2mlm2xC2zw-8" value="" style="endArrow=classic;html=1;rounded=0;fontSize=12;startSize=8;endSize=8;curved=1;" parent="1" target="HNLCLQ6TpC2mlm2xC2zw-3" edge="1">
          <mxGeometry width="50" height="50" relative="1" as="geometry">
            <mxPoint x="95" y="198" as="sourcePoint" />
            <mxPoint x="145" y="148" as="targetPoint" />
          </mxGeometry>
        </mxCell>
        <mxCell id="HNLCLQ6TpC2mlm2xC2zw-9" value="" style="endArrow=classic;html=1;rounded=0;fontSize=12;startSize=8;endSize=8;curved=1;" parent="1" target="HNLCLQ6TpC2mlm2xC2zw-4" edge="1">
          <mxGeometry width="50" height="50" relative="1" as="geometry">
            <mxPoint x="214" y="266" as="sourcePoint" />
            <mxPoint x="264" y="216" as="targetPoint" />
          </mxGeometry>
        </mxCell>
        <mxCell id="HNLCLQ6TpC2mlm2xC2zw-10" value="" style="endArrow=classic;html=1;rounded=0;fontSize=12;startSize=8;endSize=8;curved=1;" parent="1" target="HNLCLQ6TpC2mlm2xC2zw-5" edge="1">
          <mxGeometry width="50" height="50" relative="1" as="geometry">
            <mxPoint x="333" y="335" as="sourcePoint" />
            <mxPoint x="383" y="285" as="targetPoint" />
          </mxGeometry>
        </mxCell>
        <mxCell id="HNLCLQ6TpC2mlm2xC2zw-11" value="Ingresa el .txt&amp;nbsp;&amp;nbsp;&lt;div&gt;&quot;(+ 2 3)&quot;&lt;/div&gt;" style="text;strokeColor=none;fillColor=none;html=1;align=center;verticalAlign=middle;whiteSpace=wrap;rounded=0;fontSize=16;" parent="1" vertex="1">
          <mxGeometry x="-37" y="153" width="150" height="7" as="geometry" />
        </mxCell>
        <mxCell id="HNLCLQ6TpC2mlm2xC2zw-12" value="La GUI recibe el .txt" style="text;strokeColor=none;fillColor=none;html=1;align=center;verticalAlign=middle;whiteSpace=wrap;rounded=0;fontSize=16;" parent="1" vertex="1">
          <mxGeometry x="113" y="175" width="76" height="30" as="geometry" />
        </mxCell>
        <mxCell id="HNLCLQ6TpC2mlm2xC2zw-13" value="Analiza la cadena y genera los tokens." style="text;strokeColor=none;fillColor=none;html=1;align=center;verticalAlign=middle;whiteSpace=wrap;rounded=0;fontSize=16;" parent="1" vertex="1">
          <mxGeometry x="246" y="277" width="60" height="30" as="geometry" />
        </mxCell>
        <mxCell id="HNLCLQ6TpC2mlm2xC2zw-15" value="Procesa los tokens, reconoce el operador y ejecuta la operación de suma" style="text;strokeColor=none;fillColor=none;html=1;align=center;verticalAlign=middle;whiteSpace=wrap;rounded=0;fontSize=16;" parent="1" vertex="1">
          <mxGeometry x="363" y="339" width="60" height="30" as="geometry" />
        </mxCell>
        <mxCell id="JF9KsgWr-YNFX4FfgTss-1" value="Muestra a usuario: &quot;5&quot;" style="text;strokeColor=none;fillColor=none;html=1;align=center;verticalAlign=middle;whiteSpace=wrap;rounded=0;fontSize=16;" vertex="1" parent="1">
          <mxGeometry x="473" y="315" width="60" height="30" as="geometry" />
        </mxCell>
      </root>
    </mxGraphModel>
  </diagram>
  <diagram name="DEFUN" id="DNIs4FHVZnj_E6jJXQ-U">
    <mxGraphModel dx="1149" dy="432" grid="0" gridSize="10" guides="1" tooltips="1" connect="1" arrows="1" fold="1" page="0" pageScale="1" pageWidth="827" pageHeight="1169" math="0" shadow="0">
      <root>
        <mxCell id="aq137_L14f9LTnF1c5km-0" />
        <mxCell id="aq137_L14f9LTnF1c5km-1" parent="aq137_L14f9LTnF1c5km-0" />
        <mxCell id="aq137_L14f9LTnF1c5km-2" value="Usuario" style="shape=umlLifeline;perimeter=lifelinePerimeter;whiteSpace=wrap;html=1;container=1;dropTarget=0;collapsible=0;recursiveResize=0;outlineConnect=0;portConstraint=eastwest;newEdgeStyle={&quot;edgeStyle&quot;:&quot;elbowEdgeStyle&quot;,&quot;elbow&quot;:&quot;vertical&quot;,&quot;curved&quot;:0,&quot;rounded&quot;:0};" vertex="1" parent="aq137_L14f9LTnF1c5km-1">
          <mxGeometry x="-76" y="61" width="100" height="300" as="geometry" />
        </mxCell>
        <mxCell id="aq137_L14f9LTnF1c5km-3" value="GUI" style="shape=umlLifeline;perimeter=lifelinePerimeter;whiteSpace=wrap;html=1;container=1;dropTarget=0;collapsible=0;recursiveResize=0;outlineConnect=0;portConstraint=eastwest;newEdgeStyle={&quot;edgeStyle&quot;:&quot;elbowEdgeStyle&quot;,&quot;elbow&quot;:&quot;vertical&quot;,&quot;curved&quot;:0,&quot;rounded&quot;:0};" vertex="1" parent="aq137_L14f9LTnF1c5km-1">
          <mxGeometry x="44" y="61" width="100" height="300" as="geometry" />
        </mxCell>
        <mxCell id="aq137_L14f9LTnF1c5km-4" value="Scanner" style="shape=umlLifeline;perimeter=lifelinePerimeter;whiteSpace=wrap;html=1;container=1;dropTarget=0;collapsible=0;recursiveResize=0;outlineConnect=0;portConstraint=eastwest;newEdgeStyle={&quot;edgeStyle&quot;:&quot;elbowEdgeStyle&quot;,&quot;elbow&quot;:&quot;vertical&quot;,&quot;curved&quot;:0,&quot;rounded&quot;:0};" vertex="1" parent="aq137_L14f9LTnF1c5km-1">
          <mxGeometry x="164" y="61" width="100" height="300" as="geometry" />
        </mxCell>
        <mxCell id="aq137_L14f9LTnF1c5km-5" value="Intérprete" style="shape=umlLifeline;perimeter=lifelinePerimeter;whiteSpace=wrap;html=1;container=1;dropTarget=0;collapsible=0;recursiveResize=0;outlineConnect=0;portConstraint=eastwest;newEdgeStyle={&quot;edgeStyle&quot;:&quot;elbowEdgeStyle&quot;,&quot;elbow&quot;:&quot;vertical&quot;,&quot;curved&quot;:0,&quot;rounded&quot;:0};" vertex="1" parent="aq137_L14f9LTnF1c5km-1">
          <mxGeometry x="284" y="61" width="100" height="300" as="geometry" />
        </mxCell>
        <mxCell id="aq137_L14f9LTnF1c5km-6" value="GUI" style="shape=umlLifeline;perimeter=lifelinePerimeter;whiteSpace=wrap;html=1;container=1;dropTarget=0;collapsible=0;recursiveResize=0;outlineConnect=0;portConstraint=eastwest;newEdgeStyle={&quot;edgeStyle&quot;:&quot;elbowEdgeStyle&quot;,&quot;elbow&quot;:&quot;vertical&quot;,&quot;curved&quot;:0,&quot;rounded&quot;:0};" vertex="1" parent="aq137_L14f9LTnF1c5km-1">
          <mxGeometry x="408" y="61" width="100" height="300" as="geometry" />
        </mxCell>
        <mxCell id="aq137_L14f9LTnF1c5km-7" value="" style="endArrow=classic;html=1;rounded=0;fontSize=12;startSize=8;endSize=8;curved=1;" edge="1" parent="aq137_L14f9LTnF1c5km-1">
          <mxGeometry width="50" height="50" relative="1" as="geometry">
            <mxPoint x="-26" y="135" as="sourcePoint" />
            <mxPoint x="94" y="135" as="targetPoint" />
          </mxGeometry>
        </mxCell>
        <mxCell id="aq137_L14f9LTnF1c5km-8" value="" style="endArrow=classic;html=1;rounded=0;fontSize=12;startSize=8;endSize=8;curved=1;" edge="1" parent="aq137_L14f9LTnF1c5km-1" target="aq137_L14f9LTnF1c5km-4">
          <mxGeometry width="50" height="50" relative="1" as="geometry">
            <mxPoint x="95" y="198" as="sourcePoint" />
            <mxPoint x="145" y="148" as="targetPoint" />
          </mxGeometry>
        </mxCell>
        <mxCell id="aq137_L14f9LTnF1c5km-9" value="" style="endArrow=classic;html=1;rounded=0;fontSize=12;startSize=8;endSize=8;curved=1;" edge="1" parent="aq137_L14f9LTnF1c5km-1" target="aq137_L14f9LTnF1c5km-5">
          <mxGeometry width="50" height="50" relative="1" as="geometry">
            <mxPoint x="214" y="266" as="sourcePoint" />
            <mxPoint x="264" y="216" as="targetPoint" />
          </mxGeometry>
        </mxCell>
        <mxCell id="aq137_L14f9LTnF1c5km-10" value="" style="endArrow=classic;html=1;rounded=0;fontSize=12;startSize=8;endSize=8;curved=1;" edge="1" parent="aq137_L14f9LTnF1c5km-1" target="aq137_L14f9LTnF1c5km-6">
          <mxGeometry width="50" height="50" relative="1" as="geometry">
            <mxPoint x="333" y="335" as="sourcePoint" />
            <mxPoint x="383" y="285" as="targetPoint" />
          </mxGeometry>
        </mxCell>
        <mxCell id="aq137_L14f9LTnF1c5km-11" value="Ingresa la expresión &lt;code data-end=&quot;465&quot; data-start=&quot;398&quot;&gt;&quot;(defun factorial (n) (if (&amp;lt;= n 1) 1 (* n (factorial (- n 1)))))&quot; y un n=4&lt;/code&gt;" style="text;strokeColor=none;fillColor=none;html=1;align=center;verticalAlign=middle;whiteSpace=wrap;rounded=0;fontSize=16;" vertex="1" parent="aq137_L14f9LTnF1c5km-1">
          <mxGeometry x="-42" y="198" width="150" height="7" as="geometry" />
        </mxCell>
        <mxCell id="aq137_L14f9LTnF1c5km-12" value="La GUI recibe el .txt" style="text;strokeColor=none;fillColor=none;html=1;align=center;verticalAlign=middle;whiteSpace=wrap;rounded=0;fontSize=16;" vertex="1" parent="aq137_L14f9LTnF1c5km-1">
          <mxGeometry x="113" y="175" width="76" height="30" as="geometry" />
        </mxCell>
        <mxCell id="aq137_L14f9LTnF1c5km-13" value="Analiza la cadena y genera los tokens." style="text;strokeColor=none;fillColor=none;html=1;align=center;verticalAlign=middle;whiteSpace=wrap;rounded=0;fontSize=16;" vertex="1" parent="aq137_L14f9LTnF1c5km-1">
          <mxGeometry x="246" y="277" width="60" height="30" as="geometry" />
        </mxCell>
        <mxCell id="aq137_L14f9LTnF1c5km-14" value="Guarda la definición de &lt;code data-end=&quot;726&quot; data-start=&quot;715&quot;&gt;factorial&lt;/code&gt; en la tabla de funciones." style="text;strokeColor=none;fillColor=none;html=1;align=center;verticalAlign=middle;whiteSpace=wrap;rounded=0;fontSize=16;" vertex="1" parent="aq137_L14f9LTnF1c5km-1">
          <mxGeometry x="363" y="339" width="60" height="30" as="geometry" />
        </mxCell>
        <mxCell id="kzmg-JQMHs3I5S3qmuFY-0" value="Muestra a usuario: &quot;24&quot;" style="text;strokeColor=none;fillColor=none;html=1;align=center;verticalAlign=middle;whiteSpace=wrap;rounded=0;fontSize=16;" vertex="1" parent="aq137_L14f9LTnF1c5km-1">
          <mxGeometry x="473" y="315" width="60" height="30" as="geometry" />
        </mxCell>
      </root>
    </mxGraphModel>
  </diagram>
  <diagram name="SETQ" id="rUuNLScs_XR6UzfzI3pz">
    <mxGraphModel dx="1149" dy="432" grid="0" gridSize="10" guides="1" tooltips="1" connect="1" arrows="1" fold="1" page="0" pageScale="1" pageWidth="827" pageHeight="1169" math="0" shadow="0">
      <root>
        <mxCell id="kGZcmboUtMLyMl02oVvp-0" />
        <mxCell id="kGZcmboUtMLyMl02oVvp-1" parent="kGZcmboUtMLyMl02oVvp-0" />
        <mxCell id="kGZcmboUtMLyMl02oVvp-2" value="Usuario" style="shape=umlLifeline;perimeter=lifelinePerimeter;whiteSpace=wrap;html=1;container=1;dropTarget=0;collapsible=0;recursiveResize=0;outlineConnect=0;portConstraint=eastwest;newEdgeStyle={&quot;edgeStyle&quot;:&quot;elbowEdgeStyle&quot;,&quot;elbow&quot;:&quot;vertical&quot;,&quot;curved&quot;:0,&quot;rounded&quot;:0};" vertex="1" parent="kGZcmboUtMLyMl02oVvp-1">
          <mxGeometry x="-76" y="61" width="100" height="300" as="geometry" />
        </mxCell>
        <mxCell id="kGZcmboUtMLyMl02oVvp-3" value="GUI" style="shape=umlLifeline;perimeter=lifelinePerimeter;whiteSpace=wrap;html=1;container=1;dropTarget=0;collapsible=0;recursiveResize=0;outlineConnect=0;portConstraint=eastwest;newEdgeStyle={&quot;edgeStyle&quot;:&quot;elbowEdgeStyle&quot;,&quot;elbow&quot;:&quot;vertical&quot;,&quot;curved&quot;:0,&quot;rounded&quot;:0};" vertex="1" parent="kGZcmboUtMLyMl02oVvp-1">
          <mxGeometry x="44" y="61" width="100" height="300" as="geometry" />
        </mxCell>
        <mxCell id="kGZcmboUtMLyMl02oVvp-4" value="Scanner" style="shape=umlLifeline;perimeter=lifelinePerimeter;whiteSpace=wrap;html=1;container=1;dropTarget=0;collapsible=0;recursiveResize=0;outlineConnect=0;portConstraint=eastwest;newEdgeStyle={&quot;edgeStyle&quot;:&quot;elbowEdgeStyle&quot;,&quot;elbow&quot;:&quot;vertical&quot;,&quot;curved&quot;:0,&quot;rounded&quot;:0};" vertex="1" parent="kGZcmboUtMLyMl02oVvp-1">
          <mxGeometry x="164" y="61" width="100" height="300" as="geometry" />
        </mxCell>
        <mxCell id="kGZcmboUtMLyMl02oVvp-5" value="Intérprete" style="shape=umlLifeline;perimeter=lifelinePerimeter;whiteSpace=wrap;html=1;container=1;dropTarget=0;collapsible=0;recursiveResize=0;outlineConnect=0;portConstraint=eastwest;newEdgeStyle={&quot;edgeStyle&quot;:&quot;elbowEdgeStyle&quot;,&quot;elbow&quot;:&quot;vertical&quot;,&quot;curved&quot;:0,&quot;rounded&quot;:0};" vertex="1" parent="kGZcmboUtMLyMl02oVvp-1">
          <mxGeometry x="284" y="61" width="100" height="300" as="geometry" />
        </mxCell>
        <mxCell id="kGZcmboUtMLyMl02oVvp-6" value="GUI" style="shape=umlLifeline;perimeter=lifelinePerimeter;whiteSpace=wrap;html=1;container=1;dropTarget=0;collapsible=0;recursiveResize=0;outlineConnect=0;portConstraint=eastwest;newEdgeStyle={&quot;edgeStyle&quot;:&quot;elbowEdgeStyle&quot;,&quot;elbow&quot;:&quot;vertical&quot;,&quot;curved&quot;:0,&quot;rounded&quot;:0};" vertex="1" parent="kGZcmboUtMLyMl02oVvp-1">
          <mxGeometry x="408" y="61" width="100" height="300" as="geometry" />
        </mxCell>
        <mxCell id="kGZcmboUtMLyMl02oVvp-7" value="" style="endArrow=classic;html=1;rounded=0;fontSize=12;startSize=8;endSize=8;curved=1;" edge="1" parent="kGZcmboUtMLyMl02oVvp-1">
          <mxGeometry width="50" height="50" relative="1" as="geometry">
            <mxPoint x="-26" y="135" as="sourcePoint" />
            <mxPoint x="94" y="135" as="targetPoint" />
          </mxGeometry>
        </mxCell>
        <mxCell id="kGZcmboUtMLyMl02oVvp-8" value="" style="endArrow=classic;html=1;rounded=0;fontSize=12;startSize=8;endSize=8;curved=1;" edge="1" parent="kGZcmboUtMLyMl02oVvp-1" target="kGZcmboUtMLyMl02oVvp-4">
          <mxGeometry width="50" height="50" relative="1" as="geometry">
            <mxPoint x="95" y="198" as="sourcePoint" />
            <mxPoint x="145" y="148" as="targetPoint" />
          </mxGeometry>
        </mxCell>
        <mxCell id="kGZcmboUtMLyMl02oVvp-9" value="" style="endArrow=classic;html=1;rounded=0;fontSize=12;startSize=8;endSize=8;curved=1;" edge="1" parent="kGZcmboUtMLyMl02oVvp-1" target="kGZcmboUtMLyMl02oVvp-5">
          <mxGeometry width="50" height="50" relative="1" as="geometry">
            <mxPoint x="214" y="266" as="sourcePoint" />
            <mxPoint x="264" y="216" as="targetPoint" />
          </mxGeometry>
        </mxCell>
        <mxCell id="kGZcmboUtMLyMl02oVvp-10" value="" style="endArrow=classic;html=1;rounded=0;fontSize=12;startSize=8;endSize=8;curved=1;" edge="1" parent="kGZcmboUtMLyMl02oVvp-1" target="kGZcmboUtMLyMl02oVvp-6">
          <mxGeometry width="50" height="50" relative="1" as="geometry">
            <mxPoint x="333" y="335" as="sourcePoint" />
            <mxPoint x="383" y="285" as="targetPoint" />
          </mxGeometry>
        </mxCell>
        <mxCell id="kGZcmboUtMLyMl02oVvp-11" value="Ingresa la expresión &lt;code data-end=&quot;1052&quot; data-start=&quot;1037&quot;&gt;&quot;(setq x 10)&quot;&lt;/code&gt;." style="text;strokeColor=none;fillColor=none;html=1;align=center;verticalAlign=middle;whiteSpace=wrap;rounded=0;fontSize=16;" vertex="1" parent="kGZcmboUtMLyMl02oVvp-1">
          <mxGeometry x="-37" y="153" width="150" height="7" as="geometry" />
        </mxCell>
        <mxCell id="kGZcmboUtMLyMl02oVvp-12" value="La GUI recibe el .txt" style="text;strokeColor=none;fillColor=none;html=1;align=center;verticalAlign=middle;whiteSpace=wrap;rounded=0;fontSize=16;" vertex="1" parent="kGZcmboUtMLyMl02oVvp-1">
          <mxGeometry x="113" y="175" width="76" height="30" as="geometry" />
        </mxCell>
        <mxCell id="kGZcmboUtMLyMl02oVvp-13" value="Analiza la cadena y genera los tokens." style="text;strokeColor=none;fillColor=none;html=1;align=center;verticalAlign=middle;whiteSpace=wrap;rounded=0;fontSize=16;" vertex="1" parent="kGZcmboUtMLyMl02oVvp-1">
          <mxGeometry x="246" y="277" width="60" height="30" as="geometry" />
        </mxCell>
        <mxCell id="kGZcmboUtMLyMl02oVvp-14" value="&lt;li class=&quot;&quot; data-end=&quot;1236&quot; data-start=&quot;1174&quot;&gt;&lt;p class=&quot;&quot; data-end=&quot;1236&quot; data-start=&quot;1177&quot;&gt;Almacena &lt;code data-end=&quot;1210&quot; data-start=&quot;1202&quot;&gt;x = 10&lt;/code&gt; en la tabla de variables y se asegura que haya sido guardada.&lt;/p&gt;&lt;/li&gt;&lt;li class=&quot;&quot; data-end=&quot;1310&quot; data-start=&quot;1237&quot;&gt;&lt;p class=&quot;&quot; data-end=&quot;1310&quot; data-start=&quot;1240&quot;&gt;&lt;/p&gt;&lt;/li&gt;" style="text;strokeColor=none;fillColor=none;html=1;align=center;verticalAlign=middle;whiteSpace=wrap;rounded=0;fontSize=16;" vertex="1" parent="kGZcmboUtMLyMl02oVvp-1">
          <mxGeometry x="363" y="339" width="60" height="30" as="geometry" />
        </mxCell>
        <mxCell id="JYPbeCdJCrx9GPTvNClj-0" value="&lt;font style=&quot;font-size: 20px;&quot;&gt;Muestra mensaje &lt;br&gt;&lt;code style=&quot;&quot; data-start=&quot;1349&quot; data-end=&quot;1385&quot;&gt;&quot;10&quot;&lt;/code&gt;.&lt;/font&gt;" style="text;whiteSpace=wrap;html=1;" vertex="1" parent="kGZcmboUtMLyMl02oVvp-1">
          <mxGeometry x="471.0040728759766" y="283.0013639831543" width="351" height="36" as="geometry" />
        </mxCell>
      </root>
    </mxGraphModel>
  </diagram>
</mxfile>
